<svg id="bear" xmlns="http://www.w3.org/2000/svg" viewBox="0 0 237.39 226.72">
  <defs>
    <style>
      .cls-1{fill:#673200;}.cls-2{fill:#ffaaca;}.cls-3{fill:#c65b00;}.cls-4{fill:none;stroke:#000;stroke-linecap:round;stroke-linejoin:round;stroke-width:3px;}
    </style>
  </defs>
  <title>
    bear
  </title>
  <g id="left-ear">
    <circle class="cls-1" cx="34.6" cy="34.6" r="34.6"/>
    <circle class="cls-2" cx="37.05" cy="43.36" r="14.84"/>
  </g>
  <g id="right-ear">
    <circle class="cls-1" cx="202.79" cy="34.6" r="34.6"/>
    <circle class="cls-2" cx="200.34" cy="43.36" r="14.84"/>
  </g>
  <g id="face">
    <circle class="cls-1" cx="118.7" cy="118.59" r="108.13"/>
    <circle class="cls-3" cx="118.7" cy="158.08" r="42.32"/>
    <path class="cls-3" d="M164.7 20.72a65.62 65.62 0 0 0 61 113.25 108.21 108.21 0 0 0-61-113.25zM10.57 118.59a109 109 0 0 0 1.13 15.38 65.61 65.61 0 0 0 61-113.25 108.13 108.13 0 0 0-62.13 97.87z"/>
    <path class="cls-4" d="M91.95 172.45a37.24 37.24 0 0 0 52.69 0"/>
  </g>
  <circle id="nose" class="cls-2" cx="118.7" cy="123.45" r="12.96"/>
  <circle id="left-eye" cx="75.47" cy="91.86" r="9.31"/>
  <circle id="right-eye" cx="161.93" cy="91.86" r="9.31"/>
</svg>